# xmcd
#
# Track frame offsets:
#	150
#	14316
#	26638
#	40745
#	54298
#	67434
#	81079
#	92596
#	105997
#	118874
#	131278
#	145603
#	159789
#	171830
#	198828
#	212597
#	226109
#	239428
#	253836
#	267270
#
# Disc length: 3748 seconds
#
# Revision: 2
# Processed by: cddbd v1.5.2PL0 Copyright (c) Steve Scherf et al.
# Submitted via: EZCDAudioConverter 2.0.7.1
#
DISCID=040ea214
DTITLE=Various Artist - Tous les standards du Blues
DYEAR=2011
DGENRE=blues
TTITLE0=Muddy Waters - Rollin' Stone
TTITLE1=Howlin' Wolf - How many more year ?
TTITLE2=John Lee Hooker - I'm In The Mood
TTITLE3=Sonny Boy Williamson - Good morning, little schoolgirl
TTITLE4=Elmore James - Dust My Broom
TTITLE5=B.B. King - Three o' clock in the morning blues
TTITLE6=Memphis Slim - Every Day I Have The Blues
TTITLE7=J.B. Lenoir - The mojo boogie
TTITLE8=Muddy Waters - Hoochie Coochie Man
TTITLE9=Little Walter - Juke
TTITLE10=Lowell Fulson - Reconsider Baby
TTITLE11=John Lee Hooker - Boogie Chillen
TTITLE12=Lightnin' Hopkins - Shotgun Blues
TTITLE13=Jimmy Witherspoon - Aint' nobody’s business
TTITLE14=T-Bone Walker - Stormy monday blues
TTITLE15=Bessie Smith - Nobody Knows You When You're Down And Out
TTITLE16=Alberta Hunter - Cake walking babies
TTITLE17=Ma Rainey - C. rider
TTITLE18=Ida Cox - Hard Times Blues
TTITLE19=Sippie Wallace - I'm mighty tight woman
EXTD=
EXTT0=
EXTT1=
EXTT2=
EXTT3=
EXTT4=
EXTT5=
EXTT6=
EXTT7=
EXTT8=
EXTT9=
EXTT10=
EXTT11=
EXTT12=
EXTT13=
EXTT14=
EXTT15=
EXTT16=
EXTT17=
EXTT18=
EXTT19=
PLAYORDER=
